<svg id="_x33_0" enable-background="new 0 0 64 64" height="512" viewBox="0 0 64 64" width="512" xmlns="http://www.w3.org/2000/svg"><path d="m1 1v62h62v-62zm49.414 54h3.172l-1.586 1.586zm-38.414 1.586-1.586-1.586h3.172zm1.586-47.586h-3.172l1.586-1.586zm38.414-1.586 1.586 1.586h-3.172zm-41 45.586v-42h42v42zm23.414-44 5.586-5.586 5.586 5.586zm-16 0 5.586-5.586 5.586 5.586zm-9.414 4.586-1.586-1.586 1.586-1.586zm0 16-5.586-5.586 5.586-5.586zm0 16-5.586-5.586 5.586-5.586zm-1.586 6.414 1.586-1.586v3.172zm22.172 3-5.586 5.586-5.586-5.586zm16 0-5.586 5.586-5.586-5.586zm9.414-4.586 1.586 1.586-1.586 1.586zm0-16 5.586 5.586-5.586 5.586zm0-16 5.586 5.586-5.586 5.586zm0-8 1.586 1.586-1.586 1.586zm3 .172-4.586-4.586 1.586-1.586 4.586 4.586zm-10-2-5.586-5.586h11.172zm-16 0-5.586-5.586h11.172zm-16 0-5.586-5.586h11.172zm-5.414-2.586-4.586 4.586-1.586-1.586 4.586-4.586zm-2 10-5.586 5.586v-11.172zm0 16-5.586 5.586v-11.172zm0 16-5.586 5.586v-11.172zm-2.586 5.414 4.586 4.586-1.586 1.586-4.586-4.586zm10 2 5.586 5.586h-11.172zm16 0 5.586 5.586h-11.172zm16 0 5.586 5.586h-11.172zm5.414 2.586 4.586-4.586 1.586 1.586-4.586 4.586zm2-10 5.586-5.586v11.172zm0-16 5.586-5.586v11.172zm0-16 5.586-5.586v11.172zm5.586-8.414-4.586-4.586h4.586zm-53.414-4.586-4.586 4.586v-4.586zm-4.586 53.414 4.586 4.586h-4.586zm53.414 4.586 4.586-4.586v4.586z"/><path d="m43 21h-6v-2h-2v2h-2v-2h-2v2h-2v-2h-2v2h-6v6h-2v2h2v2h-2v2h2v2h-2v2h2v6h6v2h2v-2h2v2h2v-2h2v2h2v-2h6v-6h2v-2h-2v-2h2v-2h-2v-2h2v-2h-2zm-2 10h-2v2h2v2h-2v2h2v4h-4v-2h-2v2h-2v-2h-2v2h-2v-2h-2v2h-4v-4h2v-2h-2v-2h2v-2h-2v-2h2v-2h-2v-4h4v2h2v-2h2v2h2v-2h2v2h2v-2h4v4h-2v2h2z"/></svg>