<svg id="Capa_1" enable-background="new 0 0 512 512" height="512" viewBox="0 0 512 512" width="512" xmlns="http://www.w3.org/2000/svg"><path id="XMLID_1470_" d="m451.762 140.508v30.238h-40.254v-30.238h-30v30.238h-40.254v-170.746h-30v30.238h-40.254v-30.238h-30v30.238h-40.254v-30.238h-30v30.238h-40.254v-30.238h-30v30.238h-40.254v-30.238h-30v371.492h30v-30.238h40.254v30.238h30v-30.238h40.254v170.746h30v-30.238h40.254v30.238h30v-30.238h40.254v30.238h30v-30.238h40.254v30.238h30v-30.238h40.254v30.238h30v-371.492zm0 282.098-110.508-143.88v-77.98h110.508zm-15.435 29.156h-151.919l109.939-54.657zm-376.089-258.374c1.379.888 2.791 1.9 4.357 3.023 7.584 5.438 17.97 12.887 36.842 12.887 18.873 0 29.259-7.448 36.842-12.886 6.318-4.531 10.132-7.266 19.359-7.266s13.041 2.735 19.359 7.266c7.583 5.438 17.969 12.886 36.841 12.886 18.874 0 29.261-7.448 36.845-12.886 6.318-4.531 10.133-7.266 19.362-7.266 9.23 0 13.045 2.735 19.363 7.266 5.28 3.786 11.929 8.54 21.845 11.083v38.838c-1.381-.889-2.794-1.902-4.362-3.027-7.584-5.438-17.972-12.886-36.846-12.886s-29.261 7.448-36.845 12.886c-6.318 4.531-10.133 7.266-19.362 7.266-9.228 0-13.04-2.735-19.358-7.265-7.583-5.438-17.969-12.887-36.842-12.887s-29.259 7.448-36.842 12.886c-6.318 4.531-10.132 7.266-19.359 7.266s-13.04-2.735-19.357-7.265c-5.28-3.786-11.928-8.54-21.842-11.083v-38.836zm251.016-18.329c-1.381-.889-2.794-1.902-4.362-3.027-7.584-5.438-17.972-12.886-36.846-12.886s-29.261 7.448-36.845 12.886c-6.318 4.531-10.133 7.266-19.362 7.266-9.228 0-13.04-2.735-19.358-7.265-7.583-5.438-17.969-12.887-36.842-12.887s-29.259 7.448-36.842 12.886c-6.318 4.531-10.132 7.266-19.359 7.266s-13.04-2.735-19.357-7.265c-5.28-3.786-11.928-8.54-21.842-11.083v-38.836c1.379.888 2.791 1.9 4.357 3.024 7.584 5.438 17.969 12.887 36.842 12.887s29.259-7.448 36.842-12.887c6.318-4.531 10.132-7.266 19.359-7.266s13.041 2.735 19.358 7.266c7.584 5.438 17.97 12.887 36.842 12.887 18.874 0 29.261-7.448 36.845-12.886 6.318-4.531 10.133-7.266 19.362-7.266 9.23 0 13.044 2.735 19.363 7.266 5.28 3.786 11.929 8.54 21.845 11.083v4.286zm0-71.274c-1.381-.889-2.794-1.902-4.362-3.027-7.584-5.438-17.971-12.886-36.846-12.886-18.874 0-29.261 7.448-36.845 12.886-6.318 4.531-10.133 7.266-19.362 7.266-9.227 0-13.04-2.735-19.357-7.266-7.584-5.438-17.97-12.887-36.843-12.887s-29.259 7.448-36.843 12.887c-6.317 4.531-10.131 7.266-19.358 7.266s-13.04-2.735-19.357-7.266c-5.28-3.786-11.927-8.54-21.842-11.083v-29.437h251.016v43.547zm-251.016 160.877c1.379.888 2.791 1.9 4.357 3.023 7.584 5.438 17.97 12.887 36.842 12.887 18.873 0 29.259-7.448 36.842-12.886 6.318-4.531 10.132-7.266 19.359-7.266s13.041 2.735 19.359 7.266c7.583 5.438 17.969 12.886 36.841 12.886 18.874 0 29.261-7.448 36.845-12.886 6.318-4.531 10.133-7.266 19.362-7.266 9.23 0 13.045 2.735 19.363 7.266 5.28 3.786 11.929 8.54 21.845 11.083v32.485h-251.015zm140.508 76.592h40.254v30.238h30v-30.238h40.254v30.238h30v-43.514l34.472 44.881-158.707 78.902h-16.273z"/></svg>