<?xml version="1.0" encoding="iso-8859-1"?>
<!-- Generator: Adobe Illustrator 19.0.0, SVG Export Plug-In . SVG Version: 6.00 Build 0)  -->
<svg version="1.1" id="Capa_1" xmlns="http://www.w3.org/2000/svg" xmlns:xlink="http://www.w3.org/1999/xlink" x="0px" y="0px"
	 viewBox="0 0 512 512" style="enable-background:new 0 0 512 512;" xml:space="preserve">
<g>
	<g>
		<g>
			<path d="M512,224v-32h-96v-64h32V96h-32V64h-32v32h-64V0h-32v96h-64V64h-32v32h-64V64H96v32H0v32h96v64H64v32h32v64H0v32h96v64
				H64v32h32v32h32v-32h64v96h32v-96h64v32h32v-32h64v32h32v-32h96v-32h-96v-64h32v-32h-32v-64H512z M192,384h-64v-64h64V384z
				 M192,288h-64v-64h64V288z M192,192h-64v-64h64V192z M288,384h-64v-64h64V384z M288,288h-64v-64h64V288z M288,192h-64v-64h64V192
				z M384,384h-64v-64h64V384z M384,288h-64v-64h64V288z M384,192h-64v-64h64V192z"/>
			<rect x="96" width="32" height="32"/>
			<rect x="384" y="480" width="32" height="32"/>
		</g>
	</g>
</g>
<g>
</g>
<g>
</g>
<g>
</g>
<g>
</g>
<g>
</g>
<g>
</g>
<g>
</g>
<g>
</g>
<g>
</g>
<g>
</g>
<g>
</g>
<g>
</g>
<g>
</g>
<g>
</g>
<g>
</g>
</svg>
