<svg xmlns="http://www.w3.org/2000/svg" width="49.667" height="52.079" viewBox="0 0 49.667 52.079"><defs><style>.a{fill:none;stroke:#fff;stroke-width:1.2px;}</style></defs><g transform="translate(1.6 1.6)"><g transform="translate(-1 -1)"><path class="a" d="M43.428-1H3.039A4.1,4.1,0,0,0-1,3.24v42.4a4.1,4.1,0,0,0,4.039,4.24H43.428a4.1,4.1,0,0,0,4.039-4.24V3.24A4.1,4.1,0,0,0,43.428-1ZM23.233,48.183V31.223H16.771V24.439h6.462V18.5a9.228,9.228,0,0,1,8.078-9.328h7.27V15.96H32.119A2.441,2.441,0,0,0,29.7,18.5v5.936h8.078v6.784H29.7v16.96H23.233Zm22.618-2.544a2.441,2.441,0,0,1-2.423,2.544H31.311V32.919h8.078V22.743H31.311V18.5a.783.783,0,0,1,.808-.848H40.2V7.48H31.23A10.935,10.935,0,0,0,21.618,18.5v4.24H15.155V32.919h6.462V48.183H3.039A2.441,2.441,0,0,1,.616,45.639V3.24A2.441,2.441,0,0,1,3.039.7H43.428A2.441,2.441,0,0,1,45.851,3.24v42.4Z" transform="translate(1 1)"/></g></g></svg>