<svg xmlns="http://www.w3.org/2000/svg" width="50.879" height="50.879" viewBox="0 0 50.879 50.879"><defs><style>.a{fill:#fff;}</style></defs><path class="a" d="M7.453,50.879H43.426a7.461,7.461,0,0,0,7.453-7.453V7.453A7.461,7.461,0,0,0,43.426,0H7.453A7.461,7.461,0,0,0,0,7.453V43.426A7.461,7.461,0,0,0,7.453,50.879ZM2.981,7.453A4.477,4.477,0,0,1,7.453,2.981H43.426A4.477,4.477,0,0,1,47.9,7.453V43.426A4.477,4.477,0,0,1,43.426,47.9H7.453a4.477,4.477,0,0,1-4.472-4.472Zm0,0"/><path class="a" d="M134.415,147.831A13.415,13.415,0,1,0,121,134.415,13.431,13.431,0,0,0,134.415,147.831Zm0-23.849a10.434,10.434,0,1,1-10.434,10.434A10.446,10.446,0,0,1,134.415,123.981Zm0,0" transform="translate(-108.976 -108.976)"/><path class="a" d="M365.472,69.944A4.472,4.472,0,1,0,361,65.472,4.477,4.477,0,0,0,365.472,69.944Zm0-5.962a1.491,1.491,0,1,1-1.491,1.491A1.492,1.492,0,0,1,365.472,63.981Zm0,0" transform="translate(-325.126 -54.938)"/></svg>