<svg xmlns="http://www.w3.org/2000/svg" xmlns:xlink="http://www.w3.org/1999/xlink" width="59.5" height="59.5" viewBox="0 0 59.5 59.5"><defs><style>.a{fill:#fff;}.b{filter:url(#a);}</style><filter id="a" x="0" y="0" width="59.5" height="59.5" filterUnits="userSpaceOnUse"><feOffset dy="3" input="SourceAlpha"/><feGaussianBlur stdDeviation="3" result="b"/><feFlood flood-opacity="0.161"/><feComposite operator="in" in2="b"/><feComposite in="SourceGraphic"/></filter></defs><g transform="translate(9 6)"><g class="b" transform="matrix(1, 0, 0, 1, -9, -6)"><path class="a" d="M20.75,0A20.75,20.75,0,1,0,41.5,20.75,20.774,20.774,0,0,0,20.75,0ZM32.327,21.878l-15.04,9.976a1.354,1.354,0,0,1-1.5-2.256L29.13,20.75,15.791,11.9a1.354,1.354,0,1,1,1.5-2.256l15.04,9.976a1.354,1.354,0,0,1,0,2.256Z" transform="translate(9 6)"/></g></g></svg>