<svg xmlns="http://www.w3.org/2000/svg" width="16.6" height="15.904" viewBox="0 0 16.6 15.904"><defs><style>.a{opacity:0.5;}</style></defs><path class="a" d="M16.239,8.254a1.191,1.191,0,0,0-.66-2.031L11.56,5.64a.525.525,0,0,1-.4-.288L9.367,1.71a1.191,1.191,0,0,0-2.135,0l-1.8,3.642a.526.526,0,0,1-.4.288L1.02,6.224a1.191,1.191,0,0,0-.66,2.031l2.908,2.835a.526.526,0,0,1,.152.465l-.686,4a1.165,1.165,0,0,0,.26.965,1.2,1.2,0,0,0,1.468.29l3.595-1.89a.538.538,0,0,1,.489,0l3.595,1.89a1.178,1.178,0,0,0,.554.139,1.194,1.194,0,0,0,.913-.428,1.165,1.165,0,0,0,.26-.965l-.686-4a.526.526,0,0,1,.152-.465Z" transform="translate(0.001 -1.047)"/></svg>