<svg xmlns="http://www.w3.org/2000/svg" width="21.7" height="16.514" viewBox="0 0 21.7 16.514"><g transform="translate(0 -33.958)"><g transform="translate(0 33.958)"><path d="M19.051,57.75H2.654A2.656,2.656,0,0,0,0,60.4V71.611a2.656,2.656,0,0,0,2.654,2.654H19.046A2.656,2.656,0,0,0,21.7,71.611v-11.2A2.653,2.653,0,0,0,19.051,57.75Zm1.441,13.861a1.443,1.443,0,0,1-1.441,1.441H2.654a1.443,1.443,0,0,1-1.441-1.441v-11.2a1.443,1.443,0,0,1,1.441-1.441H19.046a1.443,1.443,0,0,1,1.441,1.441v11.2Z" transform="translate(0 -57.75)" fill="#fff"/><path d="M66.935,114.724l5.307-4.759a.607.607,0,1,0-.813-.9L64.11,115.63l-1.428-1.275s-.009-.009-.009-.013a.9.9,0,0,0-.1-.085l-5.81-5.2a.607.607,0,1,0-.808.907l5.37,4.8-5.348,5.006a.609.609,0,0,0-.027.858.62.62,0,0,0,.445.193.607.607,0,0,0,.413-.162l5.428-5.078,1.473,1.316a.6.6,0,0,0,.808,0l1.513-1.356,5.4,5.128a.608.608,0,0,0,.858-.022.609.609,0,0,0-.022-.858Z" transform="translate(-53.249 -106.606)" fill="#fff"/></g></g></svg>