<svg xmlns="http://www.w3.org/2000/svg" width="34.615" height="16.662" viewBox="0 0 34.615 16.662"><g transform="translate(0 0)"><path d="M24.254,9.716a11.83,11.83,0,0,0-6.948,2.154,11.837,11.837,0,0,0-6.945-2.152h-.066C4.606,9.748,0,13.468,0,18.047c0,4.6,4.642,8.329,10.36,8.329A11.825,11.825,0,0,0,17.3,24.223a9.315,9.315,0,0,1-1.059-.91h2.139a9.457,9.457,0,0,1-1.052.892h0c-.009.007-.018.012-.026.018a11.835,11.835,0,0,0,6.953,2.154c5.722,0,10.359-3.732,10.357-8.331v0C34.616,13.444,29.976,9.715,24.254,9.716Zm-7.89,3.014h1.969a9.042,9.042,0,0,1,.8.892H15.624C15.851,13.324,16.1,13.018,16.364,12.73ZM15.012,14.5h4.723a7.989,7.989,0,0,1,.447.892H14.453C14.51,15.3,14.71,14.955,15.012,14.5ZM4.229,20.168l.628-3.185L3.44,20.168H2.68l-.1-3.185-.671,3.185H.846l.882-4.223h1.61l.056,2.592,1.087-2.592H6.228l-.87,4.223Zm3.763-.007.036-.337a1.56,1.56,0,0,1-1.131.407.955.955,0,0,1-1.065-.956c0-.988,1-1.315,1.956-1.315.15,0,.474.022.474.022a.475.475,0,0,0,.036-.224c0-.268-.3-.305-.711-.305a4.254,4.254,0,0,0-1.2.156l.16-.764a4.628,4.628,0,0,1,1.336-.2c.391,0,1.515.033,1.515,1.069l-.433,2.442Zm4.1-1.076c0,1.179-1.42,1.128-1.668,1.128a4.353,4.353,0,0,1-1.238-.109l.147-.776a4.4,4.4,0,0,0,.98.135c.3,0,.683-.024.683-.309,0-.428-1.381-.325-1.381-1.341,0-.9.828-1.158,1.644-1.158a6.361,6.361,0,0,1,1.018.07l-.139.783s-.6-.04-.753-.04c-.392,0-.606.069-.606.29C10.783,18.2,12.1,17.985,12.1,19.086Zm1.705.309c.1,0,.209-.027.284-.027l-.138.753a3.466,3.466,0,0,1-.827.117c-.514,0-.879-.228-.879-.752,0-.352.627-3.249.651-3.268H14l-.112.518h.55l-.141.835h-.584l-.31,1.538C13.377,19.232,13.419,19.395,13.8,19.395Zm2.426-2.756c1.211,0,1.573.713,1.573,1.3a5.189,5.189,0,0,1-.146.808H15.415s-.207.71.977.71a4.127,4.127,0,0,0,1.172-.218l-.194.854a3.4,3.4,0,0,1-1.165.146c-.877,0-1.906-.3-1.906-1.551A1.991,1.991,0,0,1,16.229,16.638Zm2.921,5.817H15.475a7.93,7.93,0,0,1-.612-.892h4.891A8.208,8.208,0,0,1,19.15,22.455ZM18.9,20.175H17.771l.688-3.437h1.027l-.1.5a1.243,1.243,0,0,1,.86-.542,1.464,1.464,0,0,1,.213.011,2.977,2.977,0,0,0-.41,1.029C19.285,17.515,19.226,18.707,18.9,20.175Zm4.314-.053a6.236,6.236,0,0,1-.965.122,1.745,1.745,0,0,1-1.985-1.836,2.445,2.445,0,0,1,2.512-2.556,4.765,4.765,0,0,1,1.242.217l-.18.94a2.29,2.29,0,0,0-1.012-.253,1.465,1.465,0,0,0-1.424,1.622.969.969,0,0,0,1.1,1,3.123,3.123,0,0,0,.912-.218Zm2.655.042.037-.34a1.564,1.564,0,0,1-1.131.407.955.955,0,0,1-1.065-.956c0-.988,1-1.315,1.956-1.315.15,0,.475.022.475.022a.463.463,0,0,0,.037-.223c0-.268-.3-.305-.712-.305a4.245,4.245,0,0,0-1.2.156l.16-.764a4.63,4.63,0,0,1,1.337-.2c.39,0,1.515.033,1.515,1.069l-.433,2.442S25.873,20.163,25.873,20.163Zm2.292.011H27.033l.688-3.437h1.028l-.1.5a1.245,1.245,0,0,1,.861-.542,1.446,1.446,0,0,1,.212.011,2.977,2.977,0,0,0-.41,1.029C28.546,17.515,28.487,18.707,28.165,20.175Zm3.38-.009.048-.317a1.508,1.508,0,0,1-1.028.371A1.344,1.344,0,0,1,29.2,18.781a2.025,2.025,0,0,1,1.853-2.106,1.55,1.55,0,0,1,1.066.463l.239-1.187,1.106,0-.843,4.217Zm2.181-.119a.3.3,0,0,1-.124.1.4.4,0,0,1-.332,0,.3.3,0,0,1-.124-.1.228.228,0,0,1-.044-.133.234.234,0,0,1,.044-.134.3.3,0,0,1,.125-.1.405.405,0,0,1,.164-.036.4.4,0,0,1,.164.036.284.284,0,0,1,.126.1.224.224,0,0,1,0,.268Z" transform="translate(0 -9.716)" fill="#fff"/></g></svg>