<svg xmlns="http://www.w3.org/2000/svg" width="22" height="21.4" viewBox="0 0 22 21.4"><g transform="translate(-0.912)"><path d="M5.37,14.226a23.337,23.337,0,0,0,7.793,5.915,12.415,12.415,0,0,0,4.361,1.251c.105,0,.206.009.311.009a3.666,3.666,0,0,0,2.8-1.166.1.1,0,0,0,.018-.022,11.6,11.6,0,0,1,.883-.887c.215-.2.435-.408.645-.621a2.1,2.1,0,0,0-.009-3.188l-2.75-2.665a2.257,2.257,0,0,0-1.611-.718,2.335,2.335,0,0,0-1.629.714l-1.638,1.588c-.151-.084-.307-.16-.453-.231-.183-.089-.352-.173-.5-.266a17.158,17.158,0,0,1-4.141-3.654,9.633,9.633,0,0,1-1.4-2.164c.43-.377.833-.772,1.222-1.157.137-.137.279-.275.421-.412a2.243,2.243,0,0,0,.76-1.6,2.226,2.226,0,0,0-.76-1.6L8.326,2.035c-.16-.155-.311-.306-.467-.461-.3-.3-.618-.612-.929-.891A2.316,2.316,0,0,0,5.319,0,2.385,2.385,0,0,0,3.69.687L1.979,2.346A3.364,3.364,0,0,0,.931,4.528a7.98,7.98,0,0,0,.636,3.548A20.516,20.516,0,0,0,5.37,14.226Zm-3.322-9.6a2.316,2.316,0,0,1,.728-1.508l1.7-1.65a1.25,1.25,0,0,1,.842-.377,1.185,1.185,0,0,1,.824.386c.307.275.595.563.906.869.156.155.316.31.476.47L8.889,4.133a1.191,1.191,0,0,1,.43.829,1.191,1.191,0,0,1-.43.829c-.142.137-.284.279-.426.417C8.038,6.625,7.639,7.02,7.2,7.4l-.023.022a.848.848,0,0,0-.229.984c0,.013.009.022.014.035a10.383,10.383,0,0,0,1.606,2.532,18.108,18.108,0,0,0,4.411,3.893,6.618,6.618,0,0,0,.6.319c.183.089.352.173.5.266l.05.027a.93.93,0,0,0,1.126-.191l1.711-1.658a1.227,1.227,0,0,1,.837-.395,1.162,1.162,0,0,1,.81.395l2.759,2.67a1.049,1.049,0,0,1-.014,1.672c-.192.2-.394.39-.609.59a12.959,12.959,0,0,0-.956.962,2.551,2.551,0,0,1-1.963.807c-.078,0-.16,0-.238-.009a11.278,11.278,0,0,1-3.944-1.144,22.17,22.17,0,0,1-7.418-5.632A19.639,19.639,0,0,1,2.624,7.711,6.956,6.956,0,0,1,2.048,4.621Z" transform="translate(0)" fill="#fff"/></g></svg>