<svg xmlns="http://www.w3.org/2000/svg" width="32.402" height="9.975" viewBox="0 0 32.402 9.975"><g transform="translate(11.327 0.166)"><path d="M18.369,16.8l-1.647,9.664h2.634L21,16.8Z" transform="translate(-16.722 -16.799)" fill="#fff"/></g><g transform="translate(2.616 0.175)"><path d="M10.365,16.814,7.785,23.4l-.275-1A10.34,10.34,0,0,0,3.862,18.4l2.359,8.059,2.787,0,4.148-9.645Z" transform="translate(-3.862 -16.812)" fill="#fff"/></g><g transform="translate(0 0.083)"><path d="M5.265,17.462a1.06,1.06,0,0,0-1.148-.785H.034L0,16.869a8.386,8.386,0,0,1,6.153,4.862Z" transform="translate(0 -16.677)" fill="#fff"/></g><g transform="translate(15.609)"><path d="M28.381,18.573a4.862,4.862,0,0,1,1.971.37l.238.112.356-2.094a6.8,6.8,0,0,0-2.359-.406c-2.6,0-4.437,1.311-4.451,3.189-.017,1.388,1.307,2.163,2.307,2.626,1.026.474,1.37.776,1.366,1.2-.008.647-.818.944-1.575.944a5.528,5.528,0,0,1-2.48-.506l-.339-.154-.371,2.163a8.341,8.341,0,0,0,2.934.515c2.769,0,4.568-1.3,4.587-3.3.012-1.1-.691-1.936-2.213-2.624-.921-.448-1.485-.746-1.479-1.2C26.872,19,27.35,18.573,28.381,18.573Z" transform="translate(-23.043 -16.554)" fill="#fff"/></g><g transform="translate(22.946 0.177)"><path d="M41.2,16.815H39.164a1.31,1.31,0,0,0-1.38.8l-3.911,8.856H36.64s.451-1.191.553-1.452l3.373,0c.079.337.321,1.448.321,1.448H43.33Zm-3.248,6.229c.217-.555,1.049-2.7,1.049-2.7-.014.026.215-.559.351-.923l.177.833.61,2.79Z" transform="translate(-33.874 -16.815)" fill="#fff"/></g></svg>